<?xml version="1.0" encoding="UTF-8"?>
<svg id="Ebene_1" data-name="Ebene 1" xmlns="http://www.w3.org/2000/svg" viewBox="0 0 460 260">
  <defs>
    <style>
      .cls-1 {
        fill: #740689;
      }

      .cls-2 {
        fill: #ff5b1c;
      }

      .cls-3 {
        fill: #84a6ff;
      }

      .cls-4 {
        fill: #ac05f1;
      }

      .cls-5 {
        fill: #fea30c;
      }

      .cls-6 {
        fill: #3416f2;
      }

      .cls-7 {
        fill: #6e0ff3;
      }
    </style>
  </defs>
  <g>
    <g>
      <path class="cls-6" d="M185.22,75.53c0-7.36-4.08-14.02-10.44-17.7-3.23-1.84-6.71-2.74-10.54-2.74-7.61,0-14.42,3.93-18.2,10.19-1.89,3.13-2.83,6.56-2.83,10.24,0,7.41,4.08,13.97,10.49,17.65,3.23,1.84,6.71,2.78,10.54,2.78,7.61,0,14.37-3.98,18.15-10.19,1.89-3.13,2.83-6.51,2.83-10.24Z"/>
      <path class="cls-5" d="M163.93,95.97s.1-6.81.1-20.39-.05-20.39-.1-20.39c-7.56,0-14.27,3.88-18,10.14-1.89,3.13-2.83,6.56-2.83,10.24,0,7.41,4.03,14.02,10.39,17.65,3.18,1.84,6.66,2.74,10.44,2.74Z"/>
      <path class="cls-4" d="M146.33,75.33c0-.55-.5-1.04-1.09-1.04s-1.04.5-1.04,1.04c0,.6.45,1.04,1.04,1.04s1.09-.45,1.09-1.04ZM150.21,69.61c0-1.59-1.34-2.88-2.98-2.88s-2.93,1.29-2.93,2.88,1.29,2.88,2.93,2.88,2.98-1.29,2.98-2.88ZM150.71,81.1c0-1.59-1.34-2.88-2.98-2.88s-2.93,1.29-2.93,2.88,1.29,2.88,2.93,2.88,2.98-1.29,2.98-2.88ZM153.99,86.92c0-1.59-1.34-2.88-2.98-2.88s-2.93,1.29-2.93,2.88,1.29,2.88,2.93,2.88,2.98-1.29,2.98-2.88ZM153.99,64.39c0-1.59-1.34-2.88-2.98-2.88s-2.93,1.29-2.93,2.88,1.29,2.88,2.93,2.88,2.98-1.29,2.98-2.88Z"/>
      <path d="M154.58,84.13l-.15,9.7c2.98,1.34,7.36,2.44,11.69,2.44s8.4-.99,11.14-2.34v-9.1c-1.54,1.34-5.32,2.39-11.24,2.39s-9.85-1.34-11.44-3.08ZM154.44,57.53l.15,9.7c1.59-1.74,5.52-3.08,11.44-3.08s9.7,1.04,11.24,2.39v-9.1c-2.74-1.34-6.81-2.34-11.14-2.34s-8.7,1.09-11.69,2.44Z"/>
    </g>
    <g>
      <path d="M228.28,75.78c0,7.41-3.93,14.02-10.24,17.7-3.13,1.84-6.56,2.78-10.29,2.78-7.41,0-14.07-3.98-17.75-10.24-1.84-3.13-2.78-6.51-2.78-10.24,0-7.41,3.93-14.02,10.24-17.7,3.13-1.84,6.56-2.74,10.29-2.74,7.41,0,14.12,3.98,17.8,10.19,1.84,3.13,2.74,6.51,2.74,10.24Z"/>
      <path class="cls-1" d="M218.28,75.78c0-3.83-2.04-7.26-5.22-9.1-1.64-.94-3.38-1.39-5.32-1.39-3.83,0-7.26,2.04-9.15,5.22-.94,1.64-1.44,3.38-1.44,5.27,0,3.83,2.04,7.21,5.27,9.1,1.64.94,3.38,1.44,5.32,1.44,3.83,0,7.26-2.04,9.15-5.27.94-1.59,1.39-3.33,1.39-5.27Z"/>
    </g>
    <g>
      <rect x="230.27" y="55.09" width="15.96" height="41.18"/>
      <path class="cls-5" d="M246.33,96.22c9,0,17.16-3.93,21.63-10.19,2.24-3.13,3.33-6.51,3.33-10.19,0-7.36-4.77-14.02-12.43-17.65-3.83-1.84-8.01-2.74-12.53-2.74-.05,0-.05,6.81-.05,20.39s0,20.39.05,20.39Z"/>
    </g>
    <g>
      <rect class="cls-2" x="273.33" y="87.07" width="41.18" height="9.1"/>
      <rect x="273.33" y="55.19" width="11.34" height="41.08"/>
      <path class="cls-1" d="M314.45,79.66v-9.1h-41.18v9.1h41.18ZM273.28,64.19h41.18v-9.1h-41.18v9.1Z"/>
    </g>
    <g>
      <path d="M35.05,155.89v-13.73H13.47v13.73h21.58ZM35.05,128.49v-13.73H13.47v13.73h21.58Z"/>
      <path class="cls-1" d="M34,142.21v13.68c7.51,0,14.17-3.98,17.85-10.24,1.84-3.13,2.74-6.56,2.74-10.29,0-7.51-3.93-14.17-10.24-17.85-3.13-1.84-6.61-2.74-10.34-2.74v13.73c3.78,0,6.86,3.08,6.86,6.86s-3.08,6.86-6.86,6.86Z"/>
      <rect class="cls-5" x="13.47" y="128.49" width="11.34" height="13.68"/>
    </g>
    <g>
      <path d="M97.65,135.45c0,7.41-3.93,14.02-10.24,17.7-3.13,1.84-6.56,2.78-10.29,2.78-7.41,0-14.07-3.98-17.75-10.24-1.84-3.13-2.78-6.51-2.78-10.24,0-7.41,3.93-14.02,10.24-17.7,3.13-1.84,6.56-2.74,10.29-2.74,7.41,0,14.12,3.98,17.8,10.19,1.84,3.13,2.74,6.51,2.74,10.24Z"/>
      <path class="cls-1" d="M87.66,135.45c0-3.83-2.04-7.26-5.22-9.1-1.64-.94-3.38-1.39-5.32-1.39-3.83,0-7.26,2.04-9.15,5.22-.94,1.64-1.44,3.38-1.44,5.27,0,3.83,2.04,7.21,5.27,9.1,1.64.94,3.38,1.44,5.32,1.44,3.83,0,7.26-2.04,9.15-5.27.94-1.59,1.39-3.33,1.39-5.27Z"/>
    </g>
    <g>
      <path d="M99.64,135.4l13.77-.05c0,3.88,3.03,6.86,6.81,6.86v13.73c-7.41,0-14.02-3.93-17.75-10.24-1.84-3.13-2.78-6.56-2.83-10.29Z"/>
      <path class="cls-7" d="M133.9,142.21c0,4.97-2.64,9.45-6.81,11.89-2.14,1.24-4.43,1.84-6.91,1.84v-13.73h13.73Z"/>
      <path class="cls-4" d="M140.86,135.4h-13.73c0-3.78-3.08-6.86-6.86-6.86s-6.86,3.08-6.86,6.86h-13.73c0-7.51,3.93-14.17,10.24-17.85,3.13-1.84,6.61-2.74,10.34-2.74,7.51,0,14.17,3.93,17.85,10.24,1.84,3.13,2.74,6.61,2.74,10.34Z"/>
    </g>
    <g>
      <polygon class="cls-3" points="169.25 136.74 157.62 136.74 157.62 114.76 142.85 114.76 142.85 155.94 184.02 155.94 184.02 114.76 169.25 114.76 169.25 136.74"/>
      <rect x="142.85" y="136.74" width="41.18" height="19.2"/>
    </g>
    <g>
      <path d="M217.64,114.36v41.52h9.7v-41.52h-9.7ZM186.06,114.36v41.52h9.7v-41.52h-9.7Z"/>
      <polygon class="cls-3" points="206.2 155.79 212.81 114.41 199.14 114.41 206.2 155.79"/>
      <polygon class="cls-5" points="227.39 114.36 186.01 114.36 186.01 136.39 206.7 114.51 227.39 136.39 227.39 114.36"/>
    </g>
    <g>
      <rect class="cls-2" x="229.42" y="146.74" width="41.18" height="9.1"/>
      <rect x="229.42" y="114.86" width="11.34" height="41.08"/>
      <path class="cls-1" d="M270.55,139.33v-9.1h-41.18v9.1h41.18ZM229.37,123.86h41.18v-9.1h-41.18v9.1Z"/>
    </g>
    <g>
      <path d="M272.58,114.71h20.49v41.22h-20.49v-41.22ZM293.42,119.53c11.39,0,17.16,9.35,19.1,19.24.94,4.92,1.44,9.6,1.44,14.02,0,1.24-.05,2.29-.1,3.13h-41.13l-.05-2.69c0-8.75,1.29-19.49,7.46-27.65,3.03-4.03,7.46-6.07,13.28-6.07Z"/>
      <path class="cls-5" d="M293.37,136.64c8.6,0,10.89,9.45,10.89,17.65l-.05,1.64h-21.83c-.2-6.81,1.04-12.93,4.43-16.56,1.64-1.84,3.83-2.74,6.56-2.74Z"/>
    </g>
    <g>
      <rect class="cls-3" x="143.1" y="181.94" width="41.08" height="17.11"/>
      <path d="M152.1,174.53l.1,30.83c0,3.33,1.44,6.56,5.67,8.65,2.09,1.04,4.92,1.59,8.45,1.59,7.51,0,11.98-4.53,13.33-10.24h-9.3v-30.83h-18.25Z"/>
    </g>
    <g>
      <path d="M206.75,215.61h20.59l-6.86-13.73h-13.72v13.73ZM206.75,188.21h-20.59l6.86-13.73h13.73v13.73Z"/>
      <rect class="cls-3" x="206.75" y="174.53" width="13.72" height="27.4"/>
      <path class="cls-4" d="M213.56,201.88c0-4.97-2.64-9.4-6.81-11.84-2.09-1.24-4.38-1.84-6.86-1.84-4.97,0-9.45,2.64-11.89,6.81-1.24,2.09-1.84,4.38-1.84,6.86,0,4.97,2.59,9.45,6.81,11.89,2.09,1.24,4.38,1.84,6.91,1.84,4.97,0,9.4-2.64,11.84-6.86,1.24-2.09,1.84-4.38,1.84-6.86Z"/>
    </g>
    <g>
      <rect class="cls-3" x="229.32" y="181.94" width="41.08" height="17.11"/>
      <path d="M238.32,174.53l.1,30.83c0,3.33,1.44,6.56,5.67,8.65,2.09,1.04,4.92,1.59,8.45,1.59,7.51,0,11.98-4.53,13.33-10.24h-9.3v-30.83h-18.25Z"/>
    </g>
    <g>
      <rect x="272.48" y="184.92" width="41.08" height="30.68"/>
      <path class="cls-2" d="M303.31,179.7c0,2.83-2.34,5.17-5.17,5.17s-5.17-2.34-5.17-5.17,2.34-5.17,5.17-5.17,5.17,2.34,5.17,5.17ZM313.66,179.7c0,2.83-2.34,5.17-5.17,5.17s-5.17-2.34-5.17-5.17,2.34-5.17,5.17-5.17,5.17,2.34,5.17,5.17ZM282.73,179.7c0,2.83-2.34,5.17-5.17,5.17s-5.17-2.34-5.17-5.17,2.34-5.17,5.17-5.17,5.17,2.34,5.17,5.17ZM293.07,179.7c0,2.83-2.34,5.17-5.17,5.17s-5.17-2.34-5.17-5.17,2.34-5.17,5.17-5.17,5.17,2.34,5.17,5.17Z"/>
    </g>
    <g>
      <path d="M356.72,195.12c0,7.41-3.93,14.02-10.24,17.7-3.13,1.84-6.56,2.78-10.29,2.78-7.41,0-14.07-3.98-17.75-10.24-1.84-3.13-2.78-6.51-2.78-10.24,0-7.41,3.93-14.02,10.24-17.7,3.13-1.84,6.56-2.74,10.29-2.74,7.41,0,14.12,3.98,17.8,10.19,1.84,3.13,2.74,6.51,2.74,10.24Z"/>
      <path class="cls-1" d="M346.72,195.12c0-3.83-2.04-7.26-5.22-9.1-1.64-.94-3.38-1.39-5.32-1.39-3.83,0-7.26,2.04-9.15,5.22-.94,1.64-1.44,3.38-1.44,5.27,0,3.83,2.04,7.21,5.27,9.1,1.64.94,3.38,1.44,5.32,1.44,3.83,0,7.26-2.04,9.15-5.27.94-1.59,1.39-3.33,1.39-5.27Z"/>
    </g>
    <g>
      <path d="M358.71,174.38h20.49v41.22h-20.49v-41.22ZM379.54,179.21c11.39,0,17.16,9.35,19.1,19.24.94,4.92,1.44,9.6,1.44,14.02,0,1.24-.05,2.29-.1,3.13h-41.13l-.05-2.69c0-8.75,1.29-19.49,7.46-27.65,3.03-4.03,7.46-6.07,13.28-6.07Z"/>
      <path class="cls-5" d="M379.49,196.31c8.6,0,10.89,9.45,10.89,17.65l-.05,1.64h-21.83c-.2-6.81,1.04-12.93,4.43-16.56,1.64-1.84,3.83-2.74,6.56-2.74Z"/>
    </g>
  </g>
  <rect class="cls-1" x="322.32" y="130.33" width="41.18" height="9.1"/>
  <path d="M405.99,74l-8.04-8.04,6.03-6.03,4.42-3.82-.1-.4-8.04.4h-7.23c-4.92,0-9.34,2.41-9.34,8.34s4.42,8.34,9.34,8.34v11.45c-12.46,0-23.31-6.83-23.31-20.19s10.85-20.19,23.31-20.19h7.23l8.04.4.1-.4-4.42-3.82-6.03-6.03,8.04-8.04,24.01,24.01-24.01,24.01Z"/>
</svg>