<?xml version="1.0" encoding="UTF-8"?>
<svg id="Ebene_1" data-name="Ebene 1" xmlns="http://www.w3.org/2000/svg" viewBox="0 0 460 260">
  <defs>
    <style>
      .cls-1 {
        fill: #740689;
      }

      .cls-2 {
        fill: #ff5b1c;
      }

      .cls-3 {
        fill: #84a6ff;
      }

      .cls-4 {
        fill: #ac05f1;
      }

      .cls-5 {
        fill: #fea30c;
      }

      .cls-6 {
        fill: #3416f2;
      }

      .cls-7 {
        fill: #6e0ff3;
      }
    </style>
  </defs>
  <g>
    <g>
      <path class="cls-5" d="M149.82,77.94v-9h27.35v9h-27.35ZM149.87,66.46v-15.27h27.35v15.27h-27.35Z"/>
      <path d="M136.1,73.02v-2.93c.35-6.37,2.88-11.98,6.91-15.56,1.99-1.79,4.18-2.93,6.61-3.38h2.39v41.13c-6.32,0-11.09-3.63-13.68-9.45-1.29-2.93-2.04-6.17-2.24-9.8Z"/>
    </g>
    <g>
      <path d="M199.8,92.27h20.59l-6.86-13.73h-13.73v13.73ZM199.8,64.87h-20.59l6.86-13.73h13.73v13.73Z"/>
      <rect class="cls-3" x="199.8" y="51.19" width="13.73" height="27.4"/>
      <path class="cls-4" d="M206.61,78.54c0-4.97-2.64-9.4-6.81-11.84-2.09-1.24-4.38-1.84-6.86-1.84-4.97,0-9.45,2.64-11.89,6.81-1.24,2.09-1.84,4.38-1.84,6.86,0,4.97,2.59,9.45,6.81,11.89,2.09,1.24,4.38,1.84,6.91,1.84,4.97,0,9.4-2.64,11.84-6.86,1.24-2.09,1.84-4.38,1.84-6.86Z"/>
    </g>
    <g>
      <path d="M222.37,71.73l13.77-.05c0,3.88,3.03,6.86,6.81,6.86v13.73c-7.41,0-14.02-3.93-17.75-10.24-1.84-3.13-2.78-6.56-2.83-10.29Z"/>
      <path class="cls-7" d="M256.63,78.54c0,4.97-2.64,9.45-6.81,11.89-2.14,1.24-4.43,1.84-6.91,1.84v-13.73h13.73Z"/>
      <path class="cls-4" d="M263.6,71.73h-13.73c0-3.78-3.08-6.86-6.86-6.86s-6.86,3.08-6.86,6.86h-13.73c0-7.51,3.93-14.17,10.24-17.85,3.13-1.84,6.61-2.74,10.34-2.74,7.51,0,14.17,3.93,17.85,10.24,1.84,3.13,2.74,6.61,2.74,10.34Z"/>
    </g>
    <g>
      <rect class="cls-2" x="265.63" y="83.07" width="41.18" height="9.1"/>
      <rect x="265.63" y="51.19" width="11.34" height="41.08"/>
      <path class="cls-1" d="M306.76,75.66v-9.1h-41.18v9.1h41.18ZM265.58,60.19h41.18v-9.1h-41.18v9.1Z"/>
    </g>
    <g>
      <polygon class="cls-4" points="311.03 71.28 347.68 85.4 347.68 73.97 311.03 60.44 311.03 71.28"/>
      <path d="M311.08,71.63h-2.29v20.54h2.29v-20.54ZM347.68,71.63v-20.54h2.29v20.54h-2.29ZM311.03,73.97v15.42c4.82,1.59,11.74,2.88,18.7,2.88s13.58-1.24,17.95-2.78v-15.52c-2.44,2.04-8.7,3.68-18.1,3.68s-15.81-1.64-18.55-3.68ZM311.03,54.17v15.42c2.74-2.04,9.15-3.68,18.55-3.68s15.66,1.64,18.1,3.68v-15.52c-4.38-1.54-10.99-2.78-17.95-2.78s-13.87,1.29-18.7,2.88Z"/>
    </g>
    <g>
      <polygon points="40.78 124.39 27.15 124.39 27.15 110.66 6.46 110.66 6.46 151.94 27.15 151.94 27.15 138.11 47.64 138.11 40.78 124.39"/>
      <polygon class="cls-3" points="40.78 151.84 47.64 138.11 27.05 138.11 27.05 151.84 40.78 151.84"/>
      <path class="cls-5" d="M27.2,148.46c3.33,0,6.27-1.84,7.91-4.82.85-1.49,1.24-3.13,1.24-4.92,0-3.53-1.79-6.66-4.58-8.45-1.39-.85-2.93-1.29-4.58-1.29l-.05,9.75.05,9.75Z"/>
      <polygon class="cls-6" points="27.15 110.66 40.88 110.66 27.15 124.39 27.15 110.66"/>
    </g>
    <g>
      <rect class="cls-2" x="49.68" y="142.74" width="41.18" height="9.1"/>
      <rect x="49.68" y="110.86" width="11.34" height="41.08"/>
      <path class="cls-1" d="M90.8,135.33v-9.1h-41.18v9.1h41.18ZM49.63,119.86h41.18v-9.1h-41.18v9.1Z"/>
    </g>
    <g>
      <polygon points="124.76 126.92 124.76 140.65 108.7 133.79 108.7 126.92 124.76 126.92"/>
      <path class="cls-6" d="M133.96,151.94v-41.08h-9.2v41.08h9.2ZM108.7,151.94v-41.08h-15.86v41.08h15.86Z"/>
    </g>
    <g>
      <rect x="136.05" y="121.25" width="41.08" height="30.68"/>
      <path class="cls-2" d="M166.88,116.03c0,2.83-2.34,5.17-5.17,5.17s-5.17-2.34-5.17-5.17,2.34-5.17,5.17-5.17,5.17,2.34,5.17,5.17ZM177.22,116.03c0,2.83-2.34,5.17-5.17,5.17s-5.17-2.34-5.17-5.17,2.34-5.17,5.17-5.17,5.17,2.34,5.17,5.17ZM146.29,116.03c0,2.83-2.34,5.17-5.17,5.17s-5.17-2.34-5.17-5.17,2.34-5.17,5.17-5.17,5.17,2.34,5.17,5.17ZM156.64,116.03c0,2.83-2.34,5.17-5.17,5.17s-5.17-2.34-5.17-5.17,2.34-5.17,5.17-5.17,5.17,2.34,5.17,5.17Z"/>
    </g>
    <g>
      <path d="M179.21,110.71h20.49v41.22h-20.49v-41.22ZM200.05,115.54c11.39,0,17.16,9.35,19.1,19.24.94,4.92,1.44,9.6,1.44,14.02,0,1.24-.05,2.29-.1,3.13h-41.13l-.05-2.69c0-8.75,1.29-19.49,7.46-27.65,3.03-4.03,7.46-6.07,13.28-6.07Z"/>
      <path class="cls-5" d="M200,132.64c8.6,0,10.89,9.45,10.89,17.65l-.05,1.64h-21.83c-.2-6.81,1.04-12.93,4.43-16.56,1.64-1.84,3.83-2.74,6.56-2.74Z"/>
    </g>
    <g>
      <rect x="222.57" y="110.76" width="15.96" height="41.18"/>
      <path class="cls-5" d="M238.63,151.89c9,0,17.16-3.93,21.63-10.19,2.24-3.13,3.33-6.51,3.33-10.19,0-7.36-4.77-14.02-12.43-17.65-3.83-1.84-8.01-2.74-12.53-2.74-.05,0-.05,6.81-.05,20.39s0,20.39.05,20.39Z"/>
    </g>
    <g>
      <rect class="cls-3" x="308.79" y="118.27" width="41.08" height="17.11"/>
      <path d="M317.79,110.86l.1,30.83c0,3.33,1.44,6.56,5.67,8.65,2.09,1.04,4.92,1.59,8.45,1.59,7.51,0,11.98-4.53,13.33-10.24h-9.3v-30.83h-18.25Z"/>
    </g>
    <g>
      <path class="cls-2" d="M392.98,151.94v-41.08h-15.96v41.08h15.96ZM367.72,151.94v-41.08h-15.86v41.08h15.86Z"/>
      <polygon points="367.72 133.79 383.68 140.65 383.68 126.92 367.72 126.92 367.72 133.79"/>
    </g>
    <g>
      <rect class="cls-2" x="395.02" y="142.74" width="41.18" height="9.1"/>
      <rect x="395.02" y="110.86" width="11.34" height="41.08"/>
      <path class="cls-1" d="M436.14,135.33v-9.1h-41.18v9.1h41.18ZM394.97,119.86h41.18v-9.1h-41.18v9.1Z"/>
    </g>
    <g>
      <path d="M113.47,211.61h20.59l-6.86-13.73h-13.73v13.73ZM113.47,184.21h-20.59l6.86-13.73h13.73v13.73Z"/>
      <rect class="cls-3" x="113.47" y="170.53" width="13.73" height="27.4"/>
      <path class="cls-4" d="M120.29,197.88c0-4.97-2.64-9.4-6.81-11.84-2.09-1.24-4.38-1.84-6.86-1.84-4.97,0-9.45,2.64-11.89,6.81-1.24,2.09-1.84,4.38-1.84,6.86,0,4.97,2.59,9.45,6.81,11.89,2.09,1.24,4.38,1.84,6.91,1.84,4.97,0,9.4-2.64,11.84-6.86,1.24-2.09,1.84-4.38,1.84-6.86Z"/>
    </g>
    <g>
      <polygon points="177.17 190.92 177.17 170.33 165.59 170.33 165.59 190.92 147.39 190.92 147.39 183.21 136.05 183.21 136.05 211.36 147.39 211.36 147.39 197.83 177.27 197.83 177.27 190.92 177.17 190.92"/>
      <rect class="cls-5" x="136.05" y="170.33" width="41.08" height="13.73"/>
      <polygon class="cls-6" points="161.26 211.61 177.27 211.61 170.41 190.92 161.26 190.92 161.26 211.61"/>
    </g>
    <g>
      <path class="cls-6" d="M221.38,190.87c0-7.36-4.08-14.02-10.44-17.7-3.23-1.84-6.71-2.74-10.54-2.74-7.61,0-14.42,3.93-18.2,10.19-1.89,3.13-2.83,6.56-2.83,10.24,0,7.41,4.08,13.97,10.49,17.65,3.23,1.84,6.71,2.78,10.54,2.78,7.61,0,14.37-3.98,18.15-10.19,1.89-3.13,2.83-6.51,2.83-10.24Z"/>
      <path class="cls-5" d="M200.1,211.31s.1-6.81.1-20.39-.05-20.39-.1-20.39c-7.56,0-14.27,3.88-18,10.14-1.89,3.13-2.83,6.56-2.83,10.24,0,7.41,4.03,14.02,10.39,17.65,3.18,1.84,6.66,2.74,10.44,2.74Z"/>
      <path class="cls-4" d="M182.49,190.67c0-.55-.5-1.04-1.09-1.04s-1.04.5-1.04,1.04c0,.6.45,1.04,1.04,1.04s1.09-.45,1.09-1.04ZM186.37,184.95c0-1.59-1.34-2.88-2.98-2.88s-2.93,1.29-2.93,2.88,1.29,2.88,2.93,2.88,2.98-1.29,2.98-2.88ZM186.87,196.44c0-1.59-1.34-2.88-2.98-2.88s-2.93,1.29-2.93,2.88,1.29,2.88,2.93,2.88,2.98-1.29,2.98-2.88ZM190.15,202.26c0-1.59-1.34-2.88-2.98-2.88s-2.93,1.29-2.93,2.88,1.29,2.88,2.93,2.88,2.98-1.29,2.98-2.88ZM190.15,179.73c0-1.59-1.34-2.88-2.98-2.88s-2.93,1.29-2.93,2.88,1.29,2.88,2.93,2.88,2.98-1.29,2.98-2.88Z"/>
      <path d="M190.75,199.47l-.15,9.7c2.98,1.34,7.36,2.44,11.69,2.44s8.4-.99,11.14-2.34v-9.1c-1.54,1.34-5.32,2.39-11.24,2.39s-9.85-1.34-11.44-3.08ZM190.6,172.87l.15,9.7c1.59-1.74,5.52-3.08,11.44-3.08s9.7,1.04,11.24,2.39v-9.1c-2.74-1.34-6.81-2.34-11.14-2.34s-8.7,1.09-11.69,2.44Z"/>
    </g>
    <g>
      <polygon points="255.29 186.59 255.29 200.32 239.23 193.46 239.23 186.59 255.29 186.59"/>
      <path class="cls-6" d="M264.49,211.61v-41.08h-9.2v41.08h9.2ZM239.23,211.61v-41.08h-15.86v41.08h15.86Z"/>
    </g>
    <g>
      <rect x="266.58" y="180.92" width="41.08" height="30.68"/>
      <path class="cls-2" d="M297.41,175.7c0,2.83-2.34,5.17-5.17,5.17s-5.17-2.34-5.17-5.17,2.34-5.17,5.17-5.17,5.17,2.34,5.17,5.17ZM307.75,175.7c0,2.83-2.34,5.17-5.17,5.17s-5.17-2.34-5.17-5.17,2.34-5.17,5.17-5.17,5.17,2.34,5.17,5.17ZM276.82,175.7c0,2.83-2.34,5.17-5.17,5.17s-5.17-2.34-5.17-5.17,2.34-5.17,5.17-5.17,5.17,2.34,5.17,5.17ZM287.16,175.7c0,2.83-2.34,5.17-5.17,5.17s-5.17-2.34-5.17-5.17,2.34-5.17,5.17-5.17,5.17,2.34,5.17,5.17Z"/>
    </g>
    <g>
      <path d="M330.08,211.61c2.93-.45,5.92-3.48,8.3-9.9,1.14-3.18,2.04-7.21,2.69-12.03.7-5.32,1.64-9.4,2.78-12.23,1.84-4.58,4.08-6.96,6.56-6.96.3,0,.55.05.7.1v41.03h-21.04Z"/>
      <path class="cls-2" d="M330.77,211.61c-2.93-.45-5.92-3.48-8.25-9.9-1.19-3.18-2.09-7.21-2.74-12.03-.7-5.32-1.64-9.4-2.78-12.23-1.84-4.58-4.08-6.96-6.56-6.96-.3,0-.55.05-.7.1v41.03h21.04Z"/>
    </g>
    <g>
      <rect class="cls-2" x="353.15" y="202.41" width="41.18" height="9.1"/>
      <rect x="353.15" y="170.53" width="11.34" height="41.08"/>
      <path class="cls-1" d="M394.27,195v-9.1h-41.18v9.1h41.18ZM353.1,179.53h41.18v-9.1h-41.18v9.1Z"/>
    </g>
  </g>
  <path d="M72.99,70l-8.04-8.04,6.03-6.03,4.42-3.82-.1-.4-8.04.4h-7.23c-4.92,0-9.34,2.41-9.34,8.34s4.42,8.34,9.34,8.34v11.45c-12.46,0-23.31-6.83-23.31-20.19s10.85-20.19,23.31-20.19h7.23l8.04.4.1-.4-4.42-3.82-6.03-6.03,8.04-8.04,24.01,24.01-24.01,24.01Z"/>
</svg>