<?xml version="1.0" encoding="UTF-8"?>
<svg id="Ebene_1" data-name="Ebene 1" xmlns="http://www.w3.org/2000/svg" viewBox="0 0 460 260">
  <defs>
    <style>
      .cls-1 {
        fill: #740689;
      }

      .cls-2 {
        fill: #ff5b1c;
      }

      .cls-3 {
        fill: #84a6ff;
      }

      .cls-4 {
        fill: #ac05f1;
      }

      .cls-5 {
        fill: #fea30c;
      }

      .cls-6 {
        fill: #3416f2;
      }

      .cls-7 {
        fill: #6e0ff3;
      }
    </style>
  </defs>
  <g>
    <g>
      <rect class="cls-3" x="36.46" y="58.6" width="41.08" height="17.11"/>
      <path d="M45.47,51.19l.1,30.83c0,3.33,1.44,6.56,5.67,8.65,2.09,1.04,4.92,1.59,8.45,1.59,7.51,0,11.98-4.53,13.33-10.24h-9.3v-30.83h-18.25Z"/>
    </g>
    <g>
      <path d="M100.11,92.27h20.59l-6.86-13.73h-13.73v13.73ZM100.11,64.87h-20.59l6.86-13.73h13.73v13.73Z"/>
      <rect class="cls-3" x="100.11" y="51.19" width="13.73" height="27.4"/>
      <path class="cls-4" d="M106.93,78.54c0-4.97-2.64-9.4-6.81-11.84-2.09-1.24-4.38-1.84-6.86-1.84-4.97,0-9.45,2.64-11.89,6.81-1.24,2.09-1.84,4.38-1.84,6.86,0,4.97,2.59,9.45,6.81,11.89,2.09,1.24,4.38,1.84,6.91,1.84,4.97,0,9.4-2.64,11.84-6.86,1.24-2.09,1.84-4.38,1.84-6.86Z"/>
    </g>
    <g>
      <polygon points="143.18 51.24 122.69 51.24 122.69 92.27 146.91 92.27 146.91 78.54 143.18 78.54 143.18 51.24"/>
      <path class="cls-3" d="M165.21,92.27c-4.13-.25-8.06-2.59-9.65-7.31-1.74-5.02-5.32-6.41-8.16-6.41l-.65.05v13.68h18.45Z"/>
    </g>
    <g>
      <rect class="cls-4" x="166.3" y="50.99" width="20.59" height="41.27"/>
      <path d="M166.2,65.01h20.59v19.2h-20.59v-19.2ZM186.79,70.53c7.56,0,14.17,3.88,17.85,10.44,1.84,3.33,2.74,7.06,2.74,11.19h-13.73c0-2.44-1.34-5.17-3.48-6.76-1.04-.8-2.19-1.19-3.38-1.19v-13.68ZM186.84,78.74l-.05-13.73c5.02-.05,7.11-6.22,6.91-13.92h13.73c0,12.18-3.88,20.59-10.05,24.62-3.13,2.04-6.61,3.03-10.54,3.03Z"/>
    </g>
    <g>
      <rect x="209.51" y="61.58" width="41.08" height="30.68"/>
      <path class="cls-2" d="M240.34,56.36c0,2.83-2.34,5.17-5.17,5.17s-5.17-2.34-5.17-5.17,2.34-5.17,5.17-5.17,5.17,2.34,5.17,5.17ZM250.68,56.36c0,2.83-2.34,5.17-5.17,5.17s-5.17-2.34-5.17-5.17,2.34-5.17,5.17-5.17,5.17,2.34,5.17,5.17ZM219.75,56.36c0,2.83-2.34,5.17-5.17,5.17s-5.17-2.34-5.17-5.17,2.34-5.17,5.17-5.17,5.17,2.34,5.17,5.17ZM230.1,56.36c0,2.83-2.34,5.17-5.17,5.17s-5.17-2.34-5.17-5.17,2.34-5.17,5.17-5.17,5.17,2.34,5.17,5.17Z"/>
    </g>
    <g>
      <path d="M252.67,51.04h20.49v41.22h-20.49v-41.22ZM273.51,55.86c11.39,0,17.16,9.35,19.1,19.24.94,4.92,1.44,9.6,1.44,14.02,0,1.24-.05,2.29-.1,3.13h-41.13l-.05-2.69c0-8.75,1.29-19.49,7.46-27.65,3.03-4.03,7.46-6.07,13.28-6.07Z"/>
      <path class="cls-5" d="M273.46,72.97c8.6,0,10.89,9.45,10.89,17.65l-.05,1.64h-21.83c-.2-6.81,1.04-12.93,4.43-16.56,1.64-1.84,3.83-2.74,6.56-2.74Z"/>
    </g>
    <g>
      <path class="cls-2" d="M317.91,92.17h-2.88c-6.37-.45-11.98-3.78-15.56-8.95-1.79-2.54-2.93-5.37-3.43-8.5v-3.03h41.13c0,7.11-3.68,13.53-9.55,17.31-2.93,1.89-6.17,2.93-9.7,3.18Z"/>
      <path d="M328.25,92.27v-25.21h-10v25.21h10ZM308.56,51.19h-12.43v20.49h13.63v-10.59h24.02v-10h-25.21v.1Z"/>
    </g>
    <g>
      <path d="M163.96,131.45c0,7.41-3.93,14.02-10.24,17.7-3.13,1.84-6.56,2.78-10.29,2.78-7.41,0-14.07-3.98-17.75-10.24-1.84-3.13-2.78-6.51-2.78-10.24,0-7.41,3.93-14.02,10.24-17.7,3.13-1.84,6.56-2.74,10.29-2.74,7.41,0,14.12,3.98,17.8,10.19,1.84,3.13,2.74,6.51,2.74,10.24Z"/>
      <path class="cls-1" d="M153.97,131.45c0-3.83-2.04-7.26-5.22-9.1-1.64-.94-3.38-1.39-5.32-1.39-3.83,0-7.26,2.04-9.15,5.22-.94,1.64-1.44,3.38-1.44,5.27,0,3.83,2.04,7.21,5.27,9.1,1.64.94,3.38,1.44,5.32,1.44,3.83,0,7.26-2.04,9.15-5.27.94-1.59,1.39-3.33,1.39-5.27Z"/>
    </g>
    <g>
      <polygon points="200.26 124.39 186.64 124.39 186.64 110.66 165.95 110.66 165.95 151.94 186.64 151.94 186.64 138.11 207.12 138.11 200.26 124.39"/>
      <polygon class="cls-3" points="200.26 151.84 207.12 138.11 186.54 138.11 186.54 151.84 200.26 151.84"/>
      <path class="cls-5" d="M186.69,148.45c3.33,0,6.27-1.84,7.91-4.82.85-1.49,1.24-3.13,1.24-4.92,0-3.53-1.79-6.66-4.58-8.45-1.39-.85-2.93-1.29-4.58-1.29l-.05,9.75.05,9.75Z"/>
      <polygon class="cls-6" points="186.64 110.66 200.36 110.66 186.64 124.39 186.64 110.66"/>
    </g>
    <g>
      <polygon class="cls-5" points="218.31 136.92 209.21 136.92 209.21 142.74 209.11 142.74 209.11 151.84 250.28 151.84 250.28 142.74 218.31 142.74 218.31 136.92"/>
      <rect x="229.5" y="110.86" width="20.79" height="41.08"/>
      <rect class="cls-4" x="209.16" y="110.76" width="41.18" height="9.1"/>
    </g>
    <g>
      <rect class="cls-2" x="252.37" y="142.74" width="41.18" height="9.1"/>
      <rect x="252.37" y="110.86" width="11.34" height="41.08"/>
      <path class="cls-1" d="M293.5,135.33v-9.1h-41.18v9.1h41.18ZM252.32,119.86h41.18v-9.1h-41.18v9.1Z"/>
    </g>
    <g>
      <path d="M295.53,131.4l13.77-.05c0,3.88,3.03,6.86,6.81,6.86v13.73c-7.41,0-14.02-3.93-17.75-10.24-1.84-3.13-2.78-6.56-2.83-10.29Z"/>
      <path class="cls-7" d="M329.79,138.21c0,4.97-2.64,9.45-6.81,11.89-2.14,1.24-4.43,1.84-6.91,1.84v-13.73h13.73Z"/>
      <path class="cls-4" d="M336.76,131.4h-13.73c0-3.78-3.08-6.86-6.86-6.86s-6.86,3.08-6.86,6.86h-13.73c0-7.51,3.93-14.17,10.24-17.85,3.13-1.84,6.61-2.74,10.34-2.74,7.51,0,14.17,3.93,17.85,10.24,1.84,3.13,2.74,6.61,2.74,10.34Z"/>
    </g>
    <g>
      <rect class="cls-3" x="338.74" y="118.27" width="41.08" height="17.11"/>
      <path d="M347.74,110.86l.1,30.83c0,3.33,1.44,6.56,5.67,8.65,2.09,1.04,4.92,1.59,8.45,1.59,7.51,0,11.98-4.53,13.33-10.24h-9.3v-30.83h-18.25Z"/>
    </g>
    <g>
      <polygon class="cls-4" points="384.04 130.95 420.69 145.07 420.69 133.64 384.04 120.11 384.04 130.95"/>
      <path d="M384.09,131.3h-2.29v20.54h2.29v-20.54ZM420.69,131.3v-20.54h2.29v20.54h-2.29ZM384.04,133.64v15.42c4.82,1.59,11.74,2.88,18.7,2.88s13.58-1.24,17.95-2.78v-15.52c-2.44,2.04-8.7,3.68-18.1,3.68s-15.81-1.64-18.55-3.68ZM384.04,113.84v15.42c2.74-2.04,9.15-3.68,18.55-3.68s15.66,1.64,18.1,3.68v-15.52c-4.38-1.54-10.99-2.78-17.95-2.78s-13.87,1.29-18.7,2.88Z"/>
    </g>
    <g>
      <path d="M57.05,211.61h20.59l-6.86-13.73h-13.73v13.73ZM57.05,184.21h-20.59l6.86-13.73h13.73v13.73Z"/>
      <rect class="cls-3" x="57.05" y="170.53" width="13.73" height="27.4"/>
      <path class="cls-4" d="M63.87,197.88c0-4.97-2.64-9.4-6.81-11.84-2.09-1.24-4.38-1.84-6.86-1.84-4.97,0-9.45,2.64-11.89,6.81-1.24,2.09-1.84,4.38-1.84,6.86,0,4.97,2.59,9.45,6.81,11.89,2.09,1.24,4.38,1.84,6.91,1.84,4.97,0,9.4-2.64,11.84-6.86,1.24-2.09,1.84-4.38,1.84-6.86Z"/>
    </g>
    <g>
      <path d="M93.3,211.61v-41.52h-13.68v41.52h13.68ZM92.8,188.53v6.86l5.97.05c7.96,0,14.32-.75,18.7-4.53,2.19-1.84,3.28-4.58,3.28-8.16,0-7.16-4.97-10.64-11.29-11.79-3.13-.55-6.71-.85-10.69-.85l-5.97.05v6.91l3.03-.05c7.56,0,14.27,1.14,14.27,5.72s-6.91,5.82-14.47,5.82l-2.83-.05Z"/>
      <polygon class="cls-3" points="100.06 211.41 120.65 211.41 113.79 193.11 100.06 193.11 100.06 211.41"/>
    </g>
    <g>
      <path d="M122.74,191.07l13.77-.05c0,3.88,3.03,6.86,6.81,6.86v13.73c-7.41,0-14.02-3.93-17.75-10.24-1.84-3.13-2.78-6.56-2.83-10.29Z"/>
      <path class="cls-7" d="M157,197.88c0,4.97-2.64,9.45-6.81,11.89-2.14,1.24-4.43,1.84-6.91,1.84v-13.73h13.73Z"/>
      <path class="cls-4" d="M163.96,191.07h-13.73c0-3.78-3.08-6.86-6.86-6.86s-6.86,3.08-6.86,6.86h-13.73c0-7.51,3.93-14.17,10.24-17.85,3.13-1.84,6.61-2.74,10.34-2.74,7.51,0,14.17,3.93,17.85,10.24,1.84,3.13,2.74,6.61,2.74,10.34Z"/>
    </g>
    <g>
      <polygon points="197.87 186.59 197.87 200.32 181.81 193.46 181.81 186.59 197.87 186.59"/>
      <path class="cls-6" d="M207.07,211.61v-41.08h-9.2v41.08h9.2ZM181.81,211.61v-41.08h-15.86v41.08h15.86Z"/>
    </g>
    <g>
      <rect x="209.16" y="180.92" width="41.08" height="30.68"/>
      <path class="cls-2" d="M239.99,175.7c0,2.83-2.34,5.17-5.17,5.17s-5.17-2.34-5.17-5.17,2.34-5.17,5.17-5.17,5.17,2.34,5.17,5.17ZM250.33,175.7c0,2.83-2.34,5.17-5.17,5.17s-5.17-2.34-5.17-5.17,2.34-5.17,5.17-5.17,5.17,2.34,5.17,5.17ZM219.4,175.7c0,2.83-2.34,5.17-5.17,5.17s-5.17-2.34-5.17-5.17,2.34-5.17,5.17-5.17,5.17,2.34,5.17,5.17ZM229.75,175.7c0,2.83-2.34,5.17-5.17,5.17s-5.17-2.34-5.17-5.17,2.34-5.17,5.17-5.17,5.17,2.34,5.17,5.17Z"/>
    </g>
    <g>
      <path class="cls-2" d="M272.66,211.61c2.93-.45,5.92-3.48,8.3-9.9,1.14-3.18,2.04-7.21,2.69-12.03.7-5.32,1.64-9.4,2.78-12.23,1.84-4.58,4.08-6.96,6.56-6.96.3,0,.55.05.7.1v41.03h-21.04Z"/>
      <path class="cls-3" d="M273.36,211.61c-2.93-.45-5.92-3.48-8.25-9.9-1.19-3.18-2.09-7.21-2.74-12.03-.7-5.32-1.64-9.4-2.78-12.23-1.84-4.58-4.08-6.96-6.56-6.96-.3,0-.55.05-.7.1v41.03h21.04Z"/>
    </g>
    <g>
      <rect class="cls-2" x="295.73" y="202.41" width="41.18" height="9.1"/>
      <rect x="295.73" y="170.53" width="11.34" height="41.08"/>
      <path class="cls-1" d="M336.86,195v-9.1h-41.18v9.1h41.18ZM295.68,179.53h41.18v-9.1h-41.18v9.1Z"/>
    </g>
  </g>
  <path d="M409.99,70l-8.04-8.04,6.03-6.03,4.42-3.82-.1-.4-8.04.4h-7.23c-4.92,0-9.34,2.41-9.34,8.34s4.42,8.34,9.34,8.34v11.45c-12.46,0-23.31-6.83-23.31-20.19s10.85-20.19,23.31-20.19h7.23l8.04.4.1-.4-4.42-3.82-6.03-6.03,8.04-8.04,24.01,24.01-24.01,24.01Z"/>
</svg>